<?xml version="1.0" encoding="UTF-8" standalone="no"?>
<!-- Created by Symbolator http://kevinpt.github.io/symbolator -->
<svg xmlns="http://www.w3.org/2000/svg"
xmlns:xlink="http://www.w3.org/1999/xlink"
xml:space="preserve"
width="520" height="230" viewBox="-160 -52 520.0 230.5" version="1.1">
<style type="text/css">
<![CDATA[
.fnt2 {fill:#000000;
    font-family:Helvetica; font-size:14pt; font-weight:bold; font-style:normal;}
.fnt1 {fill:#000000;
    font-family:Helvetica; font-size:12pt; font-weight:normal; font-style:normal;}
.label {fill:#000;
  text-anchor:middle;
  font-size:16pt; font-weight:bold; font-family:Sans;}
.link {fill: #0D47A1;}
.link:hover {fill: #0D47A1; text-decoration:underline;}
.link:visited {fill: #4A148C;}
]]>
</style>
<defs>
<marker viewBox="0 0 7 14" refX="0" refY="7" markerUnits="userSpaceOnUse" orient="auto" markerWidth="7" id="clock" markerHeight="14">
<g transform="translate(0,7)"><path d="M 0 -7 L 0 7 L 7 0 z" stroke="#000000" stroke-width="1" fill="#FFFFFF"/>
</g>
</marker>
</defs>
<rect x="-160" y="-52" width="100%" height="100%" fill="white"/><g transform="translate(0,0)">
<rect x="0" y="-15" width="200" height="30" stroke="#646464" stroke-width="1" fill="#C8C8C8"/>
<g transform="translate(0,0)">
<line x1="-20" y1="0" x2="0" y2="0" stroke="#000000" stroke-width="1" fill="none"/>
<text class="fnt1" x="10" y="0" text-anchor="normal" dy="7.0">RESET_ACTIVE_LEVEL</text>
<text class="fnt1" x="-30" y="0" style="fill:#969696" text-anchor="end" dy="7.0">std_ulogic</text>
</g>
</g>
<rect x="1.0" y="-14.0" width="198.0" height="28.0" stroke="#646464" stroke-width="3" fill="none"/>
<text class="fnt2" x="100.0" y="-24.0" text-anchor="middle" dy="-2.0">wolfram_lcar</text>
<g transform="translate(0,38.0)">
<rect x="0" y="-15" width="200" height="70" stroke="#000000" stroke-width="1" fill="#FECFCF"/>
<g transform="translate(0,0)">
<line x1="-20" y1="0" x2="0" y2="0" stroke="#000000" stroke-width="1" marker-end="url(#clock)" fill="none"/>
<text class="fnt1" x="10" y="0" text-anchor="normal" dy="7.0">Clock</text>
<text class="fnt1" x="-30" y="0" style="fill:#969696" text-anchor="end" dy="7.0">std_ulogic</text>
</g>
<g transform="translate(0,20)">
<line x1="-20" y1="0" x2="0" y2="0" stroke="#000000" stroke-width="1" fill="none"/>
<text class="fnt1" x="10" y="0" text-anchor="normal" dy="7.0">Reset</text>
<text class="fnt1" x="-30" y="0" style="fill:#969696" text-anchor="end" dy="7.0">std_ulogic</text>
</g>
<g transform="translate(0,40)">
<line x1="-20" y1="0" x2="0" y2="0" stroke="#000000" stroke-width="1" fill="none"/>
<text class="fnt1" x="10" y="0" text-anchor="normal" dy="7.0">Enable</text>
<text class="fnt1" x="-30" y="0" style="fill:#969696" text-anchor="end" dy="7.0">std_ulogic</text>
</g>
</g>
<g transform="translate(0,108.0)">
<rect x="0" y="-15" width="200" height="30" stroke="#000000" stroke-width="1" fill="#FFF6B1"/>
<g transform="translate(0,0)">
<line x1="-20" y1="0" x2="0" y2="0" stroke="#000000" stroke-width="3" fill="none"/>
<text class="fnt1" x="10" y="0" text-anchor="normal" dy="7.0">Rule_map</text>
<text class="fnt1" x="-30" y="0" style="fill:#969696" text-anchor="end" dy="7.0">std_ulogic_vector</text>
</g>
</g>
<g transform="translate(0,138.0)">
<rect x="0" y="-15" width="200" height="50" stroke="#000000" stroke-width="1" fill="#CCFED2"/>
<g transform="translate(0,0)">
<line x1="-20" y1="0" x2="0" y2="0" stroke="#000000" stroke-width="1" fill="none"/>
<text class="fnt1" x="10" y="0" text-anchor="normal" dy="7.0">Left_in</text>
<text class="fnt1" x="-30" y="0" style="fill:#969696" text-anchor="end" dy="7.0">std_ulogic</text>
</g>
<g transform="translate(0,20)">
<line x1="-20" y1="0" x2="0" y2="0" stroke="#000000" stroke-width="1" fill="none"/>
<text class="fnt1" x="10" y="0" text-anchor="normal" dy="7.0">Right_in</text>
<text class="fnt1" x="-30" y="0" style="fill:#969696" text-anchor="end" dy="7.0">std_ulogic</text>
</g>
<g transform="translate(200,0)">
<line x1="20" y1="0" x2="0" y2="0" stroke="#000000" stroke-width="3" fill="none"/>
<text class="fnt1" x="-10" y="0" text-anchor="end" dy="7.0">State</text>
<text class="fnt1" x="30" y="0" style="fill:#969696" text-anchor="normal" dy="7.0">std_ulogic_vector</text>
</g>
</g>
<rect x="1.0" y="24.0" width="198.0" height="148.0" stroke="#000000" stroke-width="3" fill="none"/>
</svg>