<?xml version="1.0" encoding="UTF-8" standalone="no"?>
<!-- Created by Symbolator http://kevinpt.github.io/symbolator -->
<svg xmlns="http://www.w3.org/2000/svg"
xmlns:xlink="http://www.w3.org/1999/xlink"
xml:space="preserve"
width="480" height="306" viewBox="-160 -52 480.0 306.5" version="1.1">
<style type="text/css">
<![CDATA[
.fnt2 {fill:#000000;
    font-family:Helvetica; font-size:14pt; font-weight:bold; font-style:normal;}
.fnt1 {fill:#000000;
    font-family:Helvetica; font-size:12pt; font-weight:normal; font-style:normal;}
.fnt3 {fill:#000000;
    font-family:Times; font-size:12pt; font-weight:normal; font-style:italic;}
.label {fill:#000;
  text-anchor:middle;
  font-size:16pt; font-weight:bold; font-family:Sans;}
.link {fill: #0D47A1;}
.link:hover {fill: #0D47A1; text-decoration:underline;}
.link:visited {fill: #4A148C;}
]]>
</style>
<defs>
<marker viewBox="0 0 7 14" refX="0" refY="7" markerUnits="userSpaceOnUse" orient="auto" markerWidth="7" id="clock" markerHeight="14">
<g transform="translate(0,7)"><path d="M 0 -7 L 0 7 L 7 0 z" stroke="#000000" stroke-width="1" fill="#FFFFFF"/>
</g>
</marker>
</defs>
<rect x="-160" y="-52" width="100%" height="100%" fill="white"/><g transform="translate(0,0)">
<rect x="0" y="-15" width="160" height="50" stroke="#646464" stroke-width="1" fill="#C8C8C8"/>
<g transform="translate(0,0)">
<line x1="-20" y1="0" x2="0" y2="0" stroke="#000000" stroke-width="1" fill="none"/>
<text class="fnt1" x="10" y="0" text-anchor="normal" dy="7.0">MEM_SIZE</text>
<text class="fnt1" x="-30" y="0" style="fill:#969696" text-anchor="end" dy="7.0">positive</text>
</g>
<g transform="translate(0,20)">
<line x1="-20" y1="0" x2="0" y2="0" stroke="#000000" stroke-width="1" fill="none"/>
<text class="fnt1" x="10" y="0" text-anchor="normal" dy="7.0">SYNC_READ</text>
<text class="fnt1" x="-30" y="0" style="fill:#969696" text-anchor="end" dy="7.0">boolean</text>
</g>
</g>
<rect x="1.0" y="-14.0" width="158.0" height="48.0" stroke="#646464" stroke-width="3" fill="none"/>
<text class="fnt2" x="80.0" y="-24.0" text-anchor="middle" dy="-2.0">dual_port_ram</text>
<g transform="translate(0,58.0)">
<rect x="0" y="-15" width="160" height="113" stroke="#000000" stroke-width="1" fill="#CCFED2"/>
<text class="fnt3" x="80.0" y="0" text-anchor="middle" dy="6.5">Write port</text>
<g transform="translate(0,23)">
<line x1="-20" y1="0" x2="0" y2="0" stroke="#000000" stroke-width="1" marker-end="url(#clock)" fill="none"/>
<text class="fnt1" x="10" y="0" text-anchor="normal" dy="7.0">Wr_clock</text>
<text class="fnt1" x="-30" y="0" style="fill:#969696" text-anchor="end" dy="7.0">std_ulogic</text>
</g>
<g transform="translate(0,43)">
<line x1="-20" y1="0" x2="0" y2="0" stroke="#000000" stroke-width="1" fill="none"/>
<text class="fnt1" x="10" y="0" text-anchor="normal" dy="7.0">We</text>
<text class="fnt1" x="-30" y="0" style="fill:#969696" text-anchor="end" dy="7.0">std_ulogic</text>
</g>
<g transform="translate(0,63)">
<line x1="-20" y1="0" x2="0" y2="0" stroke="#000000" stroke-width="1" fill="none"/>
<text class="fnt1" x="10" y="0" text-anchor="normal" dy="7.0">Wr_addr</text>
<text class="fnt1" x="-30" y="0" style="fill:#969696" text-anchor="end" dy="7.0">natural</text>
</g>
<g transform="translate(0,83)">
<line x1="-20" y1="0" x2="0" y2="0" stroke="#000000" stroke-width="3" fill="none"/>
<text class="fnt1" x="10" y="0" text-anchor="normal" dy="7.0">Wr_data</text>
<text class="fnt1" x="-30" y="0" style="fill:#969696" text-anchor="end" dy="7.0">std_ulogic_vector</text>
</g>
</g>
<g transform="translate(0,171.0)">
<rect x="0" y="-15" width="160" height="93" stroke="#000000" stroke-width="1" fill="#B2F5FF"/>
<text class="fnt3" x="80.0" y="0" text-anchor="middle" dy="6.5">Read port</text>
<g transform="translate(0,23)">
<line x1="-20" y1="0" x2="0" y2="0" stroke="#000000" stroke-width="1" marker-end="url(#clock)" fill="none"/>
<text class="fnt1" x="10" y="0" text-anchor="normal" dy="7.0">Rd_clock</text>
<text class="fnt1" x="-30" y="0" style="fill:#969696" text-anchor="end" dy="7.0">std_ulogic</text>
</g>
<g transform="translate(0,43)">
<line x1="-20" y1="0" x2="0" y2="0" stroke="#000000" stroke-width="1" fill="none"/>
<text class="fnt1" x="10" y="0" text-anchor="normal" dy="7.0">Re</text>
<text class="fnt1" x="-30" y="0" style="fill:#969696" text-anchor="end" dy="7.0">std_ulogic</text>
</g>
<g transform="translate(0,63)">
<line x1="-20" y1="0" x2="0" y2="0" stroke="#000000" stroke-width="1" fill="none"/>
<text class="fnt1" x="10" y="0" text-anchor="normal" dy="7.0">Rd_addr</text>
<text class="fnt1" x="-30" y="0" style="fill:#969696" text-anchor="end" dy="7.0">natural</text>
</g>
<g transform="translate(160,23)">
<line x1="20" y1="0" x2="0" y2="0" stroke="#000000" stroke-width="3" fill="none"/>
<text class="fnt1" x="-10" y="0" text-anchor="end" dy="7.0">Rd_data</text>
<text class="fnt1" x="30" y="0" style="fill:#969696" text-anchor="normal" dy="7.0">std_ulogic_vector</text>
</g>
</g>
<rect x="1.0" y="44.0" width="158.0" height="204.0" stroke="#000000" stroke-width="3" fill="none"/>
</svg>