<?xml version="1.0" encoding="UTF-8" standalone="no"?>
<!-- Created by Symbolator http://kevinpt.github.io/symbolator -->
<svg xmlns="http://www.w3.org/2000/svg"
xmlns:xlink="http://www.w3.org/1999/xlink"
xml:space="preserve"
width="508" height="386" viewBox="-108 -52 508.0 386.5" version="1.1">
<style type="text/css">
<![CDATA[
.fnt2 {fill:#000000;
    font-family:Helvetica; font-size:14pt; font-weight:bold; font-style:normal;}
.fnt1 {fill:#000000;
    font-family:Helvetica; font-size:12pt; font-weight:normal; font-style:normal;}
.fnt3 {fill:#000000;
    font-family:Times; font-size:12pt; font-weight:normal; font-style:italic;}
.label {fill:#000;
  text-anchor:middle;
  font-size:16pt; font-weight:bold; font-family:Sans;}
.link {fill: #0D47A1;}
.link:hover {fill: #0D47A1; text-decoration:underline;}
.link:visited {fill: #4A148C;}
]]>
</style>
<defs>
<marker viewBox="0 0 7 14" refX="0" refY="7" markerUnits="userSpaceOnUse" orient="auto" markerWidth="7" id="clock" markerHeight="14">
<g transform="translate(0,7)"><path d="M 0 -7 L 0 7 L 7 0 z" stroke="#000000" stroke-width="1" fill="#FFFFFF"/>
</g>
</marker>
</defs>
<rect x="-108" y="-52" width="100%" height="100%" fill="white"/><g transform="translate(0,0)">
<rect x="0" y="-15" width="240" height="90" stroke="#646464" stroke-width="1" fill="#C8C8C8"/>
<g transform="translate(0,0)">
<line x1="-20" y1="0" x2="0" y2="0" stroke="#000000" stroke-width="1" fill="none"/>
<text class="fnt1" x="10" y="0" text-anchor="normal" dy="7.0">RESET_ACTIVE_LEVEL</text>
<text class="fnt1" x="-30" y="0" style="fill:#969696" text-anchor="end" dy="7.0">std_ulogic</text>
</g>
<g transform="translate(0,20)">
<line x1="-20" y1="0" x2="0" y2="0" stroke="#000000" stroke-width="3" fill="none"/>
<text class="fnt1" x="10" y="0" text-anchor="normal" dy="7.0">DIRECT_READ_BIT_MASK</text>
<text class="fnt1" x="-30" y="0" style="fill:#969696" text-anchor="end" dy="7.0">reg_array</text>
</g>
<g transform="translate(0,40)">
<line x1="-20" y1="0" x2="0" y2="0" stroke="#000000" stroke-width="3" fill="none"/>
<text class="fnt1" x="10" y="0" text-anchor="normal" dy="7.0">STROBE_BIT_MASK</text>
<text class="fnt1" x="-30" y="0" style="fill:#969696" text-anchor="end" dy="7.0">reg_array</text>
</g>
<g transform="translate(0,60)">
<line x1="-20" y1="0" x2="0" y2="0" stroke="#000000" stroke-width="1" fill="none"/>
<text class="fnt1" x="10" y="0" text-anchor="normal" dy="7.0">REGISTER_INPUTS</text>
<text class="fnt1" x="-30" y="0" style="fill:#969696" text-anchor="end" dy="7.0">boolean</text>
</g>
</g>
<rect x="1.0" y="-14.0" width="238.0" height="88.0" stroke="#646464" stroke-width="3" fill="none"/>
<text class="fnt2" x="120.0" y="-24.0" text-anchor="middle" dy="-2.0">reg_file</text>
<g transform="translate(0,98.0)">
<rect x="0" y="-15" width="240" height="50" stroke="#000000" stroke-width="1" fill="#FECFCF"/>
<g transform="translate(0,0)">
<line x1="-20" y1="0" x2="0" y2="0" stroke="#000000" stroke-width="1" marker-end="url(#clock)" fill="none"/>
<text class="fnt1" x="10" y="0" text-anchor="normal" dy="7.0">Clock</text>
<text class="fnt1" x="-30" y="0" style="fill:#969696" text-anchor="end" dy="7.0">std_ulogic</text>
</g>
<g transform="translate(0,20)">
<line x1="-20" y1="0" x2="0" y2="0" stroke="#000000" stroke-width="1" fill="none"/>
<text class="fnt1" x="10" y="0" text-anchor="normal" dy="7.0">Reset</text>
<text class="fnt1" x="-30" y="0" style="fill:#969696" text-anchor="end" dy="7.0">std_ulogic</text>
</g>
</g>
<g transform="translate(0,148.0)">
<rect x="0" y="-15" width="240" height="30" stroke="#000000" stroke-width="1" fill="#FFF6B1"/>
<g transform="translate(0,0)">
<line x1="-20" y1="0" x2="0" y2="0" stroke="#000000" stroke-width="1" fill="none"/>
<text class="fnt1" x="10" y="0" text-anchor="normal" dy="7.0">Clear</text>
<text class="fnt1" x="-30" y="0" style="fill:#969696" text-anchor="end" dy="7.0">std_ulogic</text>
</g>
</g>
<g transform="translate(0,178.0)">
<rect x="0" y="-15" width="240" height="93" stroke="#000000" stroke-width="1" fill="#CCFED2"/>
<text class="fnt3" x="120.0" y="0" text-anchor="middle" dy="6.5">Addressed port</text>
<g transform="translate(0,23)">
<line x1="-20" y1="0" x2="0" y2="0" stroke="#000000" stroke-width="3" fill="none"/>
<text class="fnt1" x="10" y="0" text-anchor="normal" dy="7.0">Reg_sel</text>
<text class="fnt1" x="-30" y="0" style="fill:#969696" text-anchor="end" dy="7.0">unsigned</text>
</g>
<g transform="translate(0,43)">
<line x1="-20" y1="0" x2="0" y2="0" stroke="#000000" stroke-width="1" fill="none"/>
<text class="fnt1" x="10" y="0" text-anchor="normal" dy="7.0">We</text>
<text class="fnt1" x="-30" y="0" style="fill:#969696" text-anchor="end" dy="7.0">std_ulogic</text>
</g>
<g transform="translate(0,63)">
<line x1="-20" y1="0" x2="0" y2="0" stroke="#000000" stroke-width="3" fill="none"/>
<text class="fnt1" x="10" y="0" text-anchor="normal" dy="7.0">Wr_data</text>
<text class="fnt1" x="-30" y="0" style="fill:#969696" text-anchor="end" dy="7.0">reg_word</text>
</g>
<g transform="translate(240,23)">
<line x1="20" y1="0" x2="0" y2="0" stroke="#000000" stroke-width="3" fill="none"/>
<text class="fnt1" x="-10" y="0" text-anchor="end" dy="7.0">Rd_data</text>
<text class="fnt1" x="30" y="0" style="fill:#969696" text-anchor="normal" dy="7.0">reg_word</text>
</g>
</g>
<g transform="translate(0,271.0)">
<rect x="0" y="-15" width="240" height="73" stroke="#000000" stroke-width="1" fill="#DFC2FB"/>
<text class="fnt3" x="120.0" y="0" text-anchor="middle" dy="6.5">Registers</text>
<g transform="translate(0,23)">
<line x1="-20" y1="0" x2="0" y2="0" stroke="#000000" stroke-width="3" fill="none"/>
<text class="fnt1" x="10" y="0" text-anchor="normal" dy="7.0">Direct_read</text>
<text class="fnt1" x="-30" y="0" style="fill:#969696" text-anchor="end" dy="7.0">reg_array</text>
</g>
<g transform="translate(240,23)">
<line x1="20" y1="0" x2="0" y2="0" stroke="#000000" stroke-width="3" fill="none"/>
<text class="fnt1" x="-10" y="0" text-anchor="end" dy="7.0">Registers</text>
<text class="fnt1" x="30" y="0" style="fill:#969696" text-anchor="normal" dy="7.0">reg_array</text>
</g>
<g transform="translate(240,43)">
<line x1="20" y1="0" x2="0" y2="0" stroke="#000000" stroke-width="3" fill="none"/>
<text class="fnt1" x="-10" y="0" text-anchor="end" dy="7.0">Reg_written</text>
<text class="fnt1" x="30" y="0" style="fill:#969696" text-anchor="normal" dy="7.0">std_ulogic_vector</text>
</g>
</g>
<rect x="1.0" y="84.0" width="238.0" height="244.0" stroke="#000000" stroke-width="3" fill="none"/>
</svg>