<?xml version="1.0" encoding="UTF-8" standalone="no"?>
<!-- Created by Symbolator http://kevinpt.github.io/symbolator -->
<svg xmlns="http://www.w3.org/2000/svg"
xmlns:xlink="http://www.w3.org/1999/xlink"
xml:space="preserve"
width="395" height="179" viewBox="-115 -20 395.0 179.0" version="1.1">
<style type="text/css">
<![CDATA[
.fnt1 {fill:#000000;
    font-family:Helvetica; font-size:12pt; font-weight:normal; font-style:normal;}
.label {fill:#000;
  text-anchor:middle;
  font-size:16pt; font-weight:bold; font-family:Sans;}
.link {fill: #0D47A1;}
.link:hover {fill: #0D47A1; text-decoration:underline;}
.link:visited {fill: #4A148C;}
]]>
</style>
<defs>
<marker viewBox="0 0 8.0 15.0" refX="0.5" refY="7.5" markerUnits="userSpaceOnUse" orient="auto" markerWidth="8.0" id="clock" markerHeight="15.0">
<g transform="translate(0.5,7.5)"><path d="M 0 -7 L 0 7 L 7 0 z" stroke="#000000" stroke-width="1" fill="#FFFFFF"/>
</g>
</marker>
</defs>
<rect x="-115" y="-20" width="100%" height="100%" fill="white"/><g transform="translate(0,0)">
<rect x="0" y="-15" width="120" height="90" stroke="#646464" stroke-width="1" fill="#C8C8C8"/>
<g transform="translate(0,0)">
<line x1="-20" y1="0" x2="0" y2="0" stroke="#000000" stroke-width="1" fill="none"/>
<text class="fnt1" x="10" y="0" text-anchor="normal" dy="7.0">ROM_FILE</text>
<text class="fnt1" x="-30" y="0" style="fill:#969696" text-anchor="end" dy="7.0">string</text>
</g>
<g transform="translate(0,20)">
<line x1="-20" y1="0" x2="0" y2="0" stroke="#000000" stroke-width="1" fill="none"/>
<text class="fnt1" x="10" y="0" text-anchor="normal" dy="7.0">FORMAT</text>
<text class="fnt1" x="-30" y="0" style="fill:#969696" text-anchor="end" dy="7.0">rom_format</text>
</g>
<g transform="translate(0,40)">
<line x1="-20" y1="0" x2="0" y2="0" stroke="#000000" stroke-width="1" fill="none"/>
<text class="fnt1" x="10" y="0" text-anchor="normal" dy="7.0">MEM_SIZE</text>
<text class="fnt1" x="-30" y="0" style="fill:#969696" text-anchor="end" dy="7.0">positive</text>
</g>
<g transform="translate(0,60)">
<line x1="-20" y1="0" x2="0" y2="0" stroke="#000000" stroke-width="1" fill="none"/>
<text class="fnt1" x="10" y="0" text-anchor="normal" dy="7.0">SYNC_READ</text>
<text class="fnt1" x="-30" y="0" style="fill:#969696" text-anchor="end" dy="7.0">boolean</text>
</g>
</g>
<rect x="1.0" y="-14.0" width="118.0" height="88.0" stroke="#646464" stroke-width="3" fill="none"/>
<g transform="translate(0,98.0)">
<rect x="0" y="-15" width="120" height="70" stroke="#000000" stroke-width="1" fill="#FBBEE2"/>
<g transform="translate(0,0)">
<line x1="-20" y1="0" x2="0" y2="0" stroke="#000000" stroke-width="1" marker-end="url(#clock)" fill="none"/>
<text class="fnt1" x="10" y="0" text-anchor="normal" dy="7.0">Clock</text>
<text class="fnt1" x="-30" y="0" style="fill:#969696" text-anchor="end" dy="7.0">std_ulogic</text>
</g>
<g transform="translate(0,20)">
<line x1="-20" y1="0" x2="0" y2="0" stroke="#000000" stroke-width="1" fill="none"/>
<text class="fnt1" x="10" y="0" text-anchor="normal" dy="7.0">Re</text>
<text class="fnt1" x="-30" y="0" style="fill:#969696" text-anchor="end" dy="7.0">std_ulogic</text>
</g>
<g transform="translate(0,40)">
<line x1="-20" y1="0" x2="0" y2="0" stroke="#000000" stroke-width="1" fill="none"/>
<text class="fnt1" x="10" y="0" text-anchor="normal" dy="7.0">Addr</text>
<text class="fnt1" x="-30" y="0" style="fill:#969696" text-anchor="end" dy="7.0">natural</text>
</g>
<g transform="translate(120,0)">
<line x1="20" y1="0" x2="0" y2="0" stroke="#000000" stroke-width="3" fill="none"/>
<text class="fnt1" x="-10" y="0" text-anchor="end" dy="7.0">Data</text>
<text class="fnt1" x="30" y="0" style="fill:#969696" text-anchor="normal" dy="7.0">std_ulogic_vector</text>
</g>
</g>
<rect x="1.0" y="84.0" width="118.0" height="68.0" stroke="#000000" stroke-width="3" fill="none"/>
</svg>